<svg id="コンポーネント_2_1" data-name="コンポーネント 2 – 1" xmlns="http://www.w3.org/2000/svg" width="213" height="271.305" viewBox="0 0 213 271.305">
  <g id="グループ_1" data-name="グループ 1" transform="translate(-81 -52.695)">
    <g id="パス_1" data-name="パス 1" transform="translate(81 54)" fill="#fff">
      <path d="M 106.5 269.2493286132813 C 104.9627151489258 267.5231018066406 98.78892517089844 260.54638671875 90.23786926269531 250.3053436279297 C 81.13289642333984 239.4009094238281 67.39409637451172 222.4602661132813 53.64876556396484 203.6802978515625 C 38.20513153076172 182.5800018310547 25.90156745910645 163.5069732666016 17.07990074157715 146.990966796875 C 11.84780025482178 137.1954040527344 7.799699783325195 128.204833984375 5.04806661605835 120.2689361572266 C 2.030200004577637 111.5652084350586 0.5 103.92333984375 0.5 97.55560302734375 C 0.5 91.01013946533203 1.299999952316284 84.41633605957031 2.877799987792969 77.95743560791016 C 4.399433135986328 71.72840881347656 6.661333560943604 65.55213928222656 9.600666999816895 59.60017013549805 C 12.45513343811035 53.82000350952148 15.97176647186279 48.20247268676758 20.05286598205566 42.90357208251953 C 24.05233383178711 37.71067047119141 28.61556625366211 32.79477310180664 33.6158332824707 28.29240608215332 C 38.56969833374023 23.83177185058594 43.97019958496094 19.76077270507813 49.66726684570313 16.19247245788574 C 55.37870025634766 12.61517238616943 61.40620040893555 9.531938552856445 67.58236694335938 7.02840518951416 C 73.84619903564453 4.489338397979736 80.29010009765625 2.536005258560181 86.73509979248047 1.222638607025146 C 93.33869934082031 -0.123061366379261 99.98856353759766 -0.80539470911026 106.5 -0.80539470911026 C 113.0114364624023 -0.80539470911026 119.6613006591797 -0.123061366379261 126.2649002075195 1.222638607025146 C 132.7098999023438 2.536005258560181 139.1537933349609 4.489338397979736 145.4176330566406 7.02840518951416 C 151.5937957763672 9.531938552856445 157.6213073730469 12.61517238616943 163.3327331542969 16.19247245788574 C 169.0298004150391 19.76077270507813 174.4302978515625 23.83177185058594 179.3841705322266 28.29240608215332 C 184.3844299316406 32.79477310180664 188.9476623535156 37.71067047119141 192.9471282958984 42.90357208251953 C 197.0282287597656 48.20247268676758 200.5448608398438 53.82000350952148 203.3993377685547 59.60017013549805 C 206.3386688232422 65.55213928222656 208.6005706787109 71.72840881347656 210.1221923828125 77.95743560791016 C 211.6999969482422 84.41633605957031 212.5 91.01013946533203 212.5 97.55560302734375 C 212.5 103.92333984375 210.9698028564453 111.5652084350586 207.9519348144531 120.2689361572266 C 205.2003021240234 128.204833984375 201.1522064208984 137.1954040527344 195.9201049804688 146.990966796875 C 187.0984344482422 163.5069732666016 174.7948608398438 182.5800018310547 159.3512268066406 203.6802978515625 C 145.6058959960938 222.4602661132813 131.8670959472656 239.4009094238281 122.7621307373047 250.3053436279297 C 114.2110748291016 260.54638671875 108.0372848510742 267.5231018066406 106.5 269.2493286132813 Z" stroke="none"/>
      <path d="M 106.5 -0.305419921875 C 100.0220336914063 -0.305419921875 93.40574645996094 0.373504638671875 86.83493041992188 1.712554931640625 C 80.419921875 3.019805908203125 74.00564575195313 4.9642333984375 67.77017211914063 7.49176025390625 C 61.62092590332031 9.984405517578125 55.6195068359375 13.05430603027344 49.93267822265625 16.61619567871094 C 44.26004028320313 20.16915893554688 38.88282775878906 24.22262573242188 33.95039367675781 28.66395568847656 C 28.97256469726563 33.14613342285156 24.43003845214844 38.03965759277344 20.44900512695313 43.20866394042969 C 16.38792419433594 48.48149108886719 12.88885498046875 54.07087707519531 10.04896545410156 59.82151794433594 C 7.125823974609375 65.74079895019531 4.876495361328125 71.88247680664063 3.363540649414063 78.0760498046875 C 1.795211791992188 84.49620056152344 1 91.050048828125 1 97.55558776855469 C 1 109.6775207519531 6.557861328125 126.2296295166016 17.51914978027344 146.7520904541016 C 26.32899475097656 163.2464447021484 38.61892700195313 182.29833984375 54.04753112792969 203.3785552978516 C 67.78457641601563 222.1475830078125 81.51603698730469 239.0794830322266 90.61635589599609 249.978515625 C 98.58970642089844 259.52783203125 104.4951324462891 266.2375793457031 106.5000076293945 268.4967041015625 C 108.5038452148438 266.23876953125 114.4037170410156 259.5353698730469 122.3730392456055 249.9911956787109 C 131.4733581542969 239.0925598144531 145.2050323486328 222.1609802246094 158.9430694580078 203.3914184570313 C 174.3739929199219 182.3089141845703 186.6658935546875 163.2549133300781 195.4773254394531 146.7586669921875 C 206.4409637451172 126.2331237792969 212 109.6788482666016 212 97.55558776855469 C 212 91.050048828125 211.2047882080078 84.49620056152344 209.6364593505859 78.0760498046875 C 208.1235046386719 71.88247680664063 205.8741760253906 65.74079895019531 202.9510345458984 59.82151794433594 C 200.1111450195313 54.07087707519531 196.6120758056641 48.48149108886719 192.5509948730469 43.20866394042969 C 188.5699615478516 38.03965759277344 184.0274353027344 33.14613342285156 179.0496063232422 28.66395568847656 C 174.1171875 24.22262573242188 168.7399597167969 20.16915893554688 163.0673217773438 16.61619567871094 C 157.3804931640625 13.05430603027344 151.3790740966797 9.984405517578125 145.2298278808594 7.49176025390625 C 138.9943542480469 4.9642333984375 132.580078125 3.019805908203125 126.1650695800781 1.712554931640625 C 119.5942535400391 0.373504638671875 112.9779663085938 -0.305419921875 106.5 -0.305419921875 M 106.5 -1.305419921875 C 159.75 -1.305419921875 213 43.67752075195313 213 97.55558776855469 C 213 151.4336242675781 106.5 269.9999694824219 106.5 269.9999694824219 C 106.5 269.9999694824219 0 151.4336242675781 0 97.55558776855469 C 0 43.67752075195313 53.25 -1.305419921875 106.5 -1.305419921875 Z" stroke="none" fill="#707070"/>
    </g>
    <g id="コンポーネント_3_1" data-name="コンポーネント 3 – 1" transform="translate(140 111.935)">
      <g id="パス_2" data-name="パス 2" transform="translate(0 -7.935)" fill="#4278d5">
        <path d="M 47.5 104.5183715820313 C 35.92541122436523 104.5183715820313 24.15351295471191 99.22348022460938 15.20272541046143 89.99135589599609 C 10.65252494812012 85.29811859130859 7.066187381744385 79.85802459716797 4.543350219726563 73.82215881347656 C 1.860375046730042 67.40316009521484 0.5 60.5657958984375 0.5 53.49999618530273 C 0.5 46.47546005249023 1.858049988746643 39.95638275146484 4.536412715911865 34.12387084960938 C 7.020662307739258 28.71407127380371 10.59856224060059 23.96733474731445 15.1707124710083 20.01553344726563 C 19.49591255187988 16.27717208862305 24.56087493896484 13.36869621276855 30.22491264343262 11.37090873718262 C 35.74831390380859 9.422734260559082 41.56050109863281 8.434921264648438 47.5 8.434921264648438 C 53.43949890136719 8.434921264648438 59.25168609619141 9.422734260559082 64.77508544921875 11.37090873718262 C 70.43912506103516 13.36869621276855 75.50408935546875 16.27717208862305 79.82928466796875 20.01553344726563 C 84.40143585205078 23.96733474731445 87.97933959960938 28.71407127380371 90.46358489990234 34.12387084960938 C 93.14195251464844 39.95638275146484 94.5 46.47546005249023 94.5 53.49999618530273 C 94.5 60.5657958984375 93.13962554931641 67.40316009521484 90.45664978027344 73.82215881347656 C 87.93381500244141 79.85802459716797 84.34747314453125 85.29811859130859 79.79727172851563 89.99135589599609 C 70.84648895263672 99.22348022460938 59.07458877563477 104.5183715820313 47.5 104.5183715820313 Z" stroke="none"/>
        <path d="M 47.5 8.934913635253906 C 41.61729431152344 8.934913635253906 35.86106491088867 9.913139343261719 30.39122772216797 11.84243011474609 C 24.78633117675781 13.81935119628906 19.77541351318359 16.69645690917969 15.49766540527344 20.39380645751953 C 10.98001098632813 24.29851531982422 7.444984436035156 28.98818206787109 4.99078369140625 34.33254241943359 C 2.342697143554688 40.09912872314453 1 46.54799652099609 1 53.50000762939453 C 1 60.49925994873047 2.347373962402344 67.27175140380859 5.004676818847656 73.62934112548828 C 7.503303527832031 79.60726928710938 11.05519866943359 84.99515533447266 15.56170654296875 89.643310546875 C 24.41886901855469 98.77886199951172 36.05992126464844 104.0183639526367 47.5 104.0183639526367 C 58.94007873535156 104.0183639526367 70.58113098144531 98.77886199951172 79.43829345703125 89.643310546875 C 83.94480133056641 84.99515533447266 87.49669647216797 79.60726928710938 89.99532318115234 73.62934112548828 C 92.65262603759766 67.27175140380859 94 60.49925994873047 94 53.50000762939453 C 94 46.54799652099609 92.65730285644531 40.09912872314453 90.00921630859375 34.33254241943359 C 87.55501556396484 28.98818206787109 84.01998901367188 24.29851531982422 79.50233459472656 20.39380645751953 C 75.22458648681641 16.69645690917969 70.21366882324219 13.81935119628906 64.60877227783203 11.84243011474609 C 59.13893508911133 9.913139343261719 53.38270568847656 8.934913635253906 47.5 8.934913635253906 M 47.5 7.934913635253906 C 71.25 7.934913635253906 95 23.95276641845703 95 53.50000762939453 C 95 83.04723358154297 71.25 105.0183639526367 47.5 105.0183639526367 C 23.75 105.0183639526367 0 83.04723358154297 0 53.50000762939453 C 0 23.95276641845703 23.75 7.934913635253906 47.5 7.934913635253906 Z" stroke="none" fill="#707070"/>
      </g>
    </g>
  </g>
</svg>
